#!OML:ASF F:\VICON\USERDATA\INSTALL\rory3\rory3.ASF
:FULLY-SPECIFIED
:DEGREES
177
root -0.011595 18.1247 -4.2876 -0.738183 -3.42771 -7.27872
lowerback 7.79962 2.33656 5.79373
upperback 1.61913 3.6305 1.90497
thorax -2.45359 1.77243 -1.62123
lowerneck -14.4268 -2.75957 -0.543151
upperneck 15.3279 -3.47538 -0.9256
head 7.05938 -1.7828 -0.565949
rclavicle -1.90709e-014 1.88845e-014
rhumerus -24.6649 -12.0542 -81.6088
rradius 32.2122
rwrist 0.0762799
rhand -16.4774 24.879
rfingers 7.12502
rthumb 9.73962 -4.87576
lclavicle -1.90709e-014 1.88845e-014
lhumerus -36.8306 1.94573 82.4114
lradius 29.1503
lwrist 2.20235
lhand -25.381 23.9461
lfingers 7.12502
lthumb 1.14363 53.9227
rfemur 2.80037 8.92306 34.6863
rtibia 23.2923
rfoot -20.0708 -5.48443
rtoes 4.62682
lfemur -30.3978 -3.80927 -8.8236
ltibia 30.2677
lfoot -11.522 9.89136
ltoes -0.868603
178
root -0.00254043 18.1109 -4.13624 -0.518064 -3.5252 -7.42784
lowerback 7.58806 2.38709 5.97476
upperback 1.48679 3.70112 1.85453
thorax -2.45347 1.8041 -1.77255
lowerneck -14.0774 -2.83322 -0.438876
upperneck 15.1986 -3.57497 -1.07459
head 6.95168 -1.83848 -0.633627
rclavicle -1.30204e-014 -2.48481e-015
rhumerus -24.6901 -11.8569 -81.738
rradius 32.2926
rwrist 0.0547197
rhand -16.5146 25.3681
rfingers 7.12502
rthumb 9.70367 -4.38835
lclavicle -1.30204e-014 -2.48481e-015
lhumerus -37.1559 2.13459 82.1773
lradius 28.9877
lwrist 2.01581
lhand -24.3463 25.2372
lfingers 7.12502
lthumb 2.1429 55.2062
rfemur 3.32783 8.78381 34.7848
rtibia 22.8309
rfoot -20.0733 -5.38257
rtoes 3.1709
lfemur -30.5756 -4.51237 -8.25338
ltibia 28.272
lfoot -11.3422 10.384
ltoes -1.37751
179
root 0.00604243 18.106 -3.98405 -0.324027 -3.77286 -7.55418
lowerback 7.52174 2.51661 6.08164
upperback 1.43083 3.87729 1.79225
thorax -2.45035 1.88989 -1.90874
lowerneck -14.4068 -2.87399 -0.277865
upperneck 15.4227 -3.65757 -1.10662
head 7.07708 -1.87107 -0.686921
rclavicle 4.95844e-014 -3.57812e-015
rhumerus -24.5157 -11.856 -81.8734
rradius 32.4047
rwrist -0.0321813
rhand -16.4042 25.9842
rfingers 7.12502
rthumb 9.81021 -3.76726
lclavicle 4.95844e-014 -3.57812e-015
lhumerus -37.3416 2.38301 81.8993
lradius 29.1348
lwrist 1.24097
lhand -23.5114 26.3682
lfingers 7.12502
lthumb 2.94921 56.3275
rfemur 3.89107 8.77794 34.8651
rtibia 22.4432
rfoot -20.071 -5.22286
rtoes 2.39373
lfemur -30.5886 -5.27167 -7.63774
ltibia 26.4279
lfoot -11.5299 10.9525
ltoes -0.845809
180
root 0.0142605 18.0939 -3.83944 -0.223198 -3.96626 -7.82274
lowerback 7.54281 2.57196 6.23927
upperback 1.49785 3.96313 1.86732
thorax -2.38053 1.93474 -1.9244
lowerneck -14.9865 -2.77601 -0.328634
upperneck 15.6741 -3.53182 -0.980292
head 7.26368 -1.8011 -0.637789
rclavicle 1.52816e-014 5.86415e-015
rhumerus -24.0825 -11.6427 -82.0569
rradius 32.6965
rwrist -0.179939
rhand -16.8473 25.2602
rfingers 7.12502
rthumb 9.38266 -4.51095
lclavicle 1.52816e-014 5.86415e-015
lhumerus -37.253 2.98635 81.6197
lradius 29.1384
lwrist -0.137682
lhand -21.3073 29.4477
lfingers 7.12502
lthumb 5.07765 59.3669
rfemur 4.50761 8.79257 35.148
rtibia 22.0739
rfoot -19.974 -5.15844
rtoes 1.44647
lfemur -30.6268 -5.90344 -6.90311
ltibia 24.8335
lfoot -11.7217 11.3321
ltoes -0.83803
181
root 0.0284141 18.0839 -3.6911 -0.0377441 -4.12934 -7.78407
lowerback 7.30745 2.63313 6.1783
upperback 1.62437 4.01297 1.84423
thorax -2.11673 1.97025 -1.90086
lowerneck -15.4576 -2.77245 -0.570522
upperneck 15.6648 -3.51957 -0.697588
head 7.35266 -1.78245 -0.51284
rclavicle 6.52759e-014 1.44119e-014
rhumerus -23.5169 -11.2448 -82.3513
rradius 33.2574
rwrist -0.583451
rhand -17.0485 22.955
rfingers 7.12502
rthumb 9.18853 -6.82483
lclavicle 6.52759e-014 1.44119e-014
lhumerus -36.9418 3.2979 81.5501
lradius 28.5545
lwrist -0.29197
lhand -20.2033 29.927
lfingers 7.12502
lthumb 6.14354 59.8179
rfemur 4.96685 8.79177 35.0343
rtibia 21.8202
rfoot -19.9886 -5.023
rtoes 0.525618
lfemur -30.7999 -6.6322 -6.50384
ltibia 23.4704
lfoot -11.9775 11.8709
ltoes -3.06053
